<?xml version="1.0" encoding="UTF-8"?>
<svg xmlns="http://www.w3.org/2000/svg" viewBox="0 0 1632 2464">
  <defs>
    <style>
      .uuid-0bb1482f-aaa0-4bdc-bb86-d2b076061a74 {
        fill: #fff;
      }

      .uuid-0bb1482f-aaa0-4bdc-bb86-d2b076061a74, .uuid-32e1a8fd-3fbe-4dd3-bbb3-6b71a5f61a01 {
        stroke-width: 0px;
      }

      .uuid-32e1a8fd-3fbe-4dd3-bbb3-6b71a5f61a01 {
        fill: #231f20;
      }
    </style>
  </defs>
  <g id="uuid-4ab30efb-c556-4ace-b2b6-fff78ce5cafa" data-name="Layer 1">
    <rect class="uuid-0bb1482f-aaa0-4bdc-bb86-d2b076061a74" x="0" y="0" width="1632" height="2464"/>
  </g>
  <g id="uuid-9f987c9d-3098-4362-8d85-0ece4f9c5bac" data-name="Layer 2">
    <path class="uuid-32e1a8fd-3fbe-4dd3-bbb3-6b71a5f61a01" d="m1301.91,1158.96c4.6-7.65,159.71-407.07,159.71-407.07,98.64-255.48-26.38-581.01-331.94-581.01H502.32c-305.58,0-430.57,325.54-331.94,581.01,0,0,155.11,399.42,159.71,407.07-138.81,129.84-225.59,314.61-225.59,519.68,0,229.96,109.13,434.41,278.39,564.47,135.91,32.42,281.59,50.01,433.11,50.01s297.2-17.59,433.12-50.01c169.26-130.07,278.39-334.51,278.39-564.47,0-205.07-86.79-389.84-225.6-519.68Zm-759.03-147.67l-131.13-352.58c-32.09-83.13-29.09-229.09,90.58-229.09h627.36c119.78,0,122.8,145.63,90.58,229.09l-131.13,352.58c-13.06,2.89-84.29-44.38-273.13-44.15-171.29.21-260.07,47.04-273.12,44.15Z"/>
  </g>
</svg>